# xmcd
#
# Track frame offsets: 
#        150
#        20462
#        39436
#        60822
#        77905
#        94420
#        111890
#        128203
#        144374
#        163345
#        184030
#        199358
#        219473
#        234899
#        252317
#        271780
#
# Disc length: 3845 seconds
#
# Revision: 0
# Processed by: cddbd v1.5.2PL0 Copyright (c) Steve Scherf et al.
# Submitted via: ExactAudioCopy v1.1
#
DISCID=db0f0310
DTITLE=The Manhattans - Black Tie (Expanded Edition)
DYEAR=2014
DGENRE=R&B
TTITLE0=Just One Moment Away
TTITLE1=You Stand Out
TTITLE2=Let Your Love Come Down
TTITLE3=Honey, Honey
TTITLE4=When You See Me Laughing
TTITLE5=I Wanta Thank You
TTITLE6=Deep Water
TTITLE7=Just Can't Seem to Get Next To You
TTITLE8=I Was Made For You
TTITLE9=When I Leave Tomorrow
TTITLE10=Just One Moment Away (Single Version)
TTITLE11=Let Your Love Come Down (12 Inch Promo Version)
TTITLE12=Let Your Love Come Down (Single Version)
TTITLE13=Do You Really Mean Goodbye ? (Single Version)
TTITLE14=Rendezvous (Single Version)
TTITLE15=I Wanta Thank You (Single Version)
EXTD=
EXTT0=
EXTT1=
EXTT2=
EXTT3=
EXTT4=
EXTT5=
EXTT6=
EXTT7=
EXTT8=
EXTT9=
EXTT10=
EXTT11=
EXTT12=
EXTT13=
EXTT14=
EXTT15=
PLAYORDER=
